<?xml version="1.0" standalone="no"?>
<!DOCTYPE svg PUBLIC "-//W3C//DTD SVG 20010904//EN"
 "http://www.w3.org/TR/2001/REC-SVG-20010904/DTD/svg10.dtd">
<svg version="1.0" xmlns="http://www.w3.org/2000/svg"
 width="1280.000000pt" height="877.000000pt" viewBox="0 0 1280.000000 877.000000"
 preserveAspectRatio="xMidYMid meet">
<metadata>
Created by potrace 1.15, written by Peter Selinger 2001-2017
</metadata>
<g transform="translate(0.000000,877.000000) scale(0.100000,-0.100000)"
fill="#562aa2" stroke="none">
<path d="M12750 8728 c-153 -139 -401 -302 -650 -427 -328 -164 -654 -264
-1030 -317 -178 -26 -626 -26 -795 -1 -284 43 -534 107 -905 235 -935 321
-1077 364 -1386 418 -202 36 -530 44 -744 20 -251 -29 -522 -89 -890 -196 -96
-28 -306 -89 -467 -135 -562 -162 -881 -214 -1247 -202 -341 11 -587 69 -1211
289 -499 176 -729 241 -986 278 -647 95 -1347 -56 -1921 -413 -137 -85 -326
-228 -430 -327 l-88 -82 0 -3929 c0 -2161 3 -3929 6 -3929 3 0 39 30 78 68
307 286 692 511 1096 640 422 135 896 171 1310 101 252 -42 320 -63 1165 -353
446 -153 652 -196 970 -203 395 -10 691 44 1360 247 856 260 1100 308 1527
297 387 -9 587 -60 1313 -332 812 -305 1048 -356 1585 -341 912 26 1495 160
2173 498 l217 109 0 4014 c0 2208 -1 4015 -2 4015 -2 -1 -23 -19 -48 -42z"/>
</g>
</svg>
